<mxfile host="65bd71144e">
    <diagram id="C0MoC9EaKNjB0K5abdDA" name="ページ1">
        <mxGraphModel dx="728" dy="563" grid="1" gridSize="10" guides="1" tooltips="1" connect="1" arrows="1" fold="1" page="1" pageScale="1" pageWidth="827" pageHeight="1169" math="0" shadow="0">
            <root>
                <mxCell id="0"/>
                <mxCell id="1" parent="0"/>
                <mxCell id="67" value="" style="group" parent="1" vertex="1" connectable="0">
                    <mxGeometry x="25" y="10" width="90" height="71.89" as="geometry"/>
                </mxCell>
                <mxCell id="2" value="" style="group" parent="67" vertex="1" connectable="0">
                    <mxGeometry x="15" width="70" height="50" as="geometry"/>
                </mxCell>
                <mxCell id="3" value="" style="group" parent="2" vertex="1" connectable="0">
                    <mxGeometry y="10" width="60" height="40" as="geometry"/>
                </mxCell>
                <mxCell id="4" value="" style="rounded=0;whiteSpace=wrap;html=1;fillColor=#fff2cc;strokeColor=#d6b656;" parent="3" vertex="1">
                    <mxGeometry y="8" width="60" height="32" as="geometry"/>
                </mxCell>
                <mxCell id="5" value="" style="shape=trapezoid;perimeter=trapezoidPerimeter;whiteSpace=wrap;html=1;fixedSize=1;size=10;fillColor=#fff2cc;strokeColor=#d6b656;" parent="3" vertex="1">
                    <mxGeometry width="23.076923076923077" height="8.88888888888889" as="geometry"/>
                </mxCell>
                <mxCell id="66" value="my_ec_site" style="text;html=1;align=center;verticalAlign=middle;resizable=0;points=[];autosize=1;strokeColor=none;fillColor=none;" parent="67" vertex="1">
                    <mxGeometry x="5" y="50" width="80" height="30" as="geometry"/>
                </mxCell>
                <mxCell id="68" value="" style="group" parent="1" vertex="1" connectable="0">
                    <mxGeometry x="105" y="170" width="90" height="71.89" as="geometry"/>
                </mxCell>
                <mxCell id="69" value="" style="group" parent="68" vertex="1" connectable="0">
                    <mxGeometry x="15" width="70" height="50" as="geometry"/>
                </mxCell>
                <mxCell id="70" value="" style="group" parent="69" vertex="1" connectable="0">
                    <mxGeometry y="10" width="60" height="40" as="geometry"/>
                </mxCell>
                <mxCell id="71" value="" style="rounded=0;whiteSpace=wrap;html=1;fillColor=#fff2cc;strokeColor=#d6b656;" parent="70" vertex="1">
                    <mxGeometry y="8" width="60" height="32" as="geometry"/>
                </mxCell>
                <mxCell id="72" value="" style="shape=trapezoid;perimeter=trapezoidPerimeter;whiteSpace=wrap;html=1;fixedSize=1;size=10;fillColor=#fff2cc;strokeColor=#d6b656;" parent="70" vertex="1">
                    <mxGeometry width="23.076923076923077" height="8.88888888888889" as="geometry"/>
                </mxCell>
                <mxCell id="73" value="my_ec_site/" style="text;html=1;align=center;verticalAlign=middle;resizable=0;points=[];autosize=1;strokeColor=none;fillColor=none;" parent="68" vertex="1">
                    <mxGeometry y="41.89" width="90" height="30" as="geometry"/>
                </mxCell>
                <mxCell id="85" value="" style="group" parent="1" vertex="1" connectable="0">
                    <mxGeometry x="180" y="220" width="80" height="380" as="geometry"/>
                </mxCell>
                <mxCell id="80" value="py" style="rounded=0;whiteSpace=wrap;html=1;" parent="85" vertex="1">
                    <mxGeometry x="50" y="300" width="40" height="40" as="geometry"/>
                </mxCell>
                <mxCell id="81" value="asgi.py" style="text;html=1;align=center;verticalAlign=middle;resizable=0;points=[];autosize=1;strokeColor=none;fillColor=none;" parent="85" vertex="1">
                    <mxGeometry x="40" y="340" width="60" height="30" as="geometry"/>
                </mxCell>
                <mxCell id="158" style="edgeStyle=none;html=1;endArrow=none;endFill=0;" parent="85" source="83" edge="1">
                    <mxGeometry relative="1" as="geometry">
                        <mxPoint x="-30" y="250" as="targetPoint"/>
                    </mxGeometry>
                </mxCell>
                <mxCell id="83" value="py" style="rounded=0;whiteSpace=wrap;html=1;" parent="85" vertex="1">
                    <mxGeometry x="50" y="230" width="40" height="40" as="geometry"/>
                </mxCell>
                <mxCell id="84" value="wsgi.py" style="text;html=1;align=center;verticalAlign=middle;resizable=0;points=[];autosize=1;strokeColor=none;fillColor=none;" parent="85" vertex="1">
                    <mxGeometry x="40" y="270" width="60" height="30" as="geometry"/>
                </mxCell>
                <mxCell id="86" value="py" style="rounded=0;whiteSpace=wrap;html=1;" parent="85" vertex="1">
                    <mxGeometry x="50" y="20" width="40" height="40" as="geometry"/>
                </mxCell>
                <mxCell id="160" style="edgeStyle=none;html=1;endArrow=none;endFill=0;" parent="85" source="89" edge="1">
                    <mxGeometry relative="1" as="geometry">
                        <mxPoint x="-30" y="110" as="targetPoint"/>
                    </mxGeometry>
                </mxCell>
                <mxCell id="89" value="py" style="rounded=0;whiteSpace=wrap;html=1;" parent="85" vertex="1">
                    <mxGeometry x="50" y="90" width="40" height="40" as="geometry"/>
                </mxCell>
                <mxCell id="159" style="edgeStyle=none;html=1;endArrow=none;endFill=0;" parent="85" source="92" edge="1">
                    <mxGeometry relative="1" as="geometry">
                        <mxPoint x="-30" y="180" as="targetPoint"/>
                    </mxGeometry>
                </mxCell>
                <mxCell id="92" value="py" style="rounded=0;whiteSpace=wrap;html=1;" parent="85" vertex="1">
                    <mxGeometry x="50" y="160" width="40" height="40" as="geometry"/>
                </mxCell>
                <mxCell id="87" value="__init__.py" style="text;html=1;align=center;verticalAlign=middle;resizable=0;points=[];autosize=1;strokeColor=none;fillColor=none;" parent="85" vertex="1">
                    <mxGeometry x="30" y="60" width="80" height="30" as="geometry"/>
                </mxCell>
                <mxCell id="90" value="settings.py" style="text;html=1;align=center;verticalAlign=middle;resizable=0;points=[];autosize=1;strokeColor=none;fillColor=none;" parent="85" vertex="1">
                    <mxGeometry x="30" y="130" width="80" height="30" as="geometry"/>
                </mxCell>
                <mxCell id="93" value="urls.py" style="text;html=1;align=center;verticalAlign=middle;resizable=0;points=[];autosize=1;strokeColor=none;fillColor=none;" parent="85" vertex="1">
                    <mxGeometry x="40" y="200" width="60" height="30" as="geometry"/>
                </mxCell>
                <mxCell id="94" value="" style="group" parent="1" vertex="1" connectable="0">
                    <mxGeometry x="105" y="600" width="90" height="71.89" as="geometry"/>
                </mxCell>
                <mxCell id="95" value="" style="group" parent="94" vertex="1" connectable="0">
                    <mxGeometry x="15" width="70" height="50" as="geometry"/>
                </mxCell>
                <mxCell id="96" value="" style="group" parent="95" vertex="1" connectable="0">
                    <mxGeometry y="10" width="60" height="40" as="geometry"/>
                </mxCell>
                <mxCell id="97" value="" style="rounded=0;whiteSpace=wrap;html=1;fillColor=#fff2cc;strokeColor=#d6b656;" parent="96" vertex="1">
                    <mxGeometry y="8" width="60" height="32" as="geometry"/>
                </mxCell>
                <mxCell id="98" value="" style="shape=trapezoid;perimeter=trapezoidPerimeter;whiteSpace=wrap;html=1;fixedSize=1;size=10;fillColor=#fff2cc;strokeColor=#d6b656;" parent="96" vertex="1">
                    <mxGeometry width="23.076923076923077" height="8.88888888888889" as="geometry"/>
                </mxCell>
                <mxCell id="99" value="users" style="text;html=1;align=center;verticalAlign=middle;resizable=0;points=[];autosize=1;strokeColor=none;fillColor=none;" parent="94" vertex="1">
                    <mxGeometry x="20" y="41.89" width="50" height="30" as="geometry"/>
                </mxCell>
                <mxCell id="102" value="" style="group" parent="1" vertex="1" connectable="0">
                    <mxGeometry x="220" y="690" width="70" height="70" as="geometry"/>
                </mxCell>
                <mxCell id="167" style="edgeStyle=none;html=1;endArrow=none;endFill=0;" parent="102" source="100" edge="1">
                    <mxGeometry relative="1" as="geometry">
                        <mxPoint x="-70" y="20" as="targetPoint"/>
                    </mxGeometry>
                </mxCell>
                <mxCell id="100" value="py" style="rounded=0;whiteSpace=wrap;html=1;" parent="102" vertex="1">
                    <mxGeometry x="10" width="40" height="40" as="geometry"/>
                </mxCell>
                <mxCell id="101" value="__init__.py" style="text;html=1;align=center;verticalAlign=middle;resizable=0;points=[];autosize=1;strokeColor=none;fillColor=none;" parent="102" vertex="1">
                    <mxGeometry x="-10" y="40" width="80" height="30" as="geometry"/>
                </mxCell>
                <mxCell id="103" value="" style="group" parent="1" vertex="1" connectable="0">
                    <mxGeometry x="220" y="760" width="70" height="70" as="geometry"/>
                </mxCell>
                <mxCell id="166" style="edgeStyle=none;html=1;endArrow=none;endFill=0;" parent="103" source="104" edge="1">
                    <mxGeometry relative="1" as="geometry">
                        <mxPoint x="-70" y="20" as="targetPoint"/>
                    </mxGeometry>
                </mxCell>
                <mxCell id="104" value="py" style="rounded=0;whiteSpace=wrap;html=1;" parent="103" vertex="1">
                    <mxGeometry x="10" width="40" height="40" as="geometry"/>
                </mxCell>
                <mxCell id="105" value="admin.py" style="text;html=1;align=center;verticalAlign=middle;resizable=0;points=[];autosize=1;strokeColor=none;fillColor=none;" parent="103" vertex="1">
                    <mxGeometry x="-5" y="40" width="70" height="30" as="geometry"/>
                </mxCell>
                <mxCell id="106" value="" style="group" parent="1" vertex="1" connectable="0">
                    <mxGeometry x="220" y="830" width="70" height="70" as="geometry"/>
                </mxCell>
                <mxCell id="165" style="edgeStyle=none;html=1;endArrow=none;endFill=0;" parent="106" source="107" edge="1">
                    <mxGeometry relative="1" as="geometry">
                        <mxPoint x="-70" y="20" as="targetPoint"/>
                    </mxGeometry>
                </mxCell>
                <mxCell id="107" value="py" style="rounded=0;whiteSpace=wrap;html=1;" parent="106" vertex="1">
                    <mxGeometry x="10" width="40" height="40" as="geometry"/>
                </mxCell>
                <mxCell id="108" value="models.py" style="text;html=1;align=center;verticalAlign=middle;resizable=0;points=[];autosize=1;strokeColor=none;fillColor=none;" parent="106" vertex="1">
                    <mxGeometry x="-10" y="40" width="80" height="30" as="geometry"/>
                </mxCell>
                <mxCell id="109" value="" style="group" parent="1" vertex="1" connectable="0">
                    <mxGeometry x="220" y="900" width="70" height="70" as="geometry"/>
                </mxCell>
                <mxCell id="164" style="edgeStyle=none;html=1;endArrow=none;endFill=0;" parent="109" source="110" edge="1">
                    <mxGeometry relative="1" as="geometry">
                        <mxPoint x="-70" y="20" as="targetPoint"/>
                    </mxGeometry>
                </mxCell>
                <mxCell id="110" value="py" style="rounded=0;whiteSpace=wrap;html=1;" parent="109" vertex="1">
                    <mxGeometry x="10" width="40" height="40" as="geometry"/>
                </mxCell>
                <mxCell id="111" value="views.py" style="text;html=1;align=center;verticalAlign=middle;resizable=0;points=[];autosize=1;strokeColor=none;fillColor=none;" parent="109" vertex="1">
                    <mxGeometry x="-5" y="40" width="70" height="30" as="geometry"/>
                </mxCell>
                <mxCell id="112" value="" style="group" parent="1" vertex="1" connectable="0">
                    <mxGeometry x="220" y="970" width="70" height="70" as="geometry"/>
                </mxCell>
                <mxCell id="113" value="py" style="rounded=0;whiteSpace=wrap;html=1;" parent="112" vertex="1">
                    <mxGeometry x="10" width="40" height="40" as="geometry"/>
                </mxCell>
                <mxCell id="114" value="urls.py" style="text;html=1;align=center;verticalAlign=middle;resizable=0;points=[];autosize=1;strokeColor=none;fillColor=none;" parent="112" vertex="1">
                    <mxGeometry y="40" width="60" height="30" as="geometry"/>
                </mxCell>
                <mxCell id="119" value="" style="group" parent="1" vertex="1" connectable="0">
                    <mxGeometry x="210" y="1040" width="90" height="71.89" as="geometry"/>
                </mxCell>
                <mxCell id="120" value="" style="group" parent="119" vertex="1" connectable="0">
                    <mxGeometry x="15" width="70" height="50" as="geometry"/>
                </mxCell>
                <mxCell id="121" value="" style="group" parent="120" vertex="1" connectable="0">
                    <mxGeometry y="10" width="60" height="40" as="geometry"/>
                </mxCell>
                <mxCell id="122" value="" style="rounded=0;whiteSpace=wrap;html=1;fillColor=#fff2cc;strokeColor=#d6b656;" parent="121" vertex="1">
                    <mxGeometry y="8" width="60" height="32" as="geometry"/>
                </mxCell>
                <mxCell id="123" value="" style="shape=trapezoid;perimeter=trapezoidPerimeter;whiteSpace=wrap;html=1;fixedSize=1;size=10;fillColor=#fff2cc;strokeColor=#d6b656;" parent="121" vertex="1">
                    <mxGeometry width="23.076923076923077" height="8.88888888888889" as="geometry"/>
                </mxCell>
                <mxCell id="124" value="templates" style="text;html=1;align=center;verticalAlign=middle;resizable=0;points=[];autosize=1;strokeColor=none;fillColor=none;" parent="119" vertex="1">
                    <mxGeometry x="5" y="41.89" width="80" height="30" as="geometry"/>
                </mxCell>
                <mxCell id="125" value="" style="group" parent="1" vertex="1" connectable="0">
                    <mxGeometry x="290" y="1110" width="90" height="71.89" as="geometry"/>
                </mxCell>
                <mxCell id="126" value="" style="group" parent="125" vertex="1" connectable="0">
                    <mxGeometry x="15" width="70" height="50" as="geometry"/>
                </mxCell>
                <mxCell id="127" value="" style="group" parent="126" vertex="1" connectable="0">
                    <mxGeometry y="10" width="60" height="40" as="geometry"/>
                </mxCell>
                <mxCell id="128" value="" style="rounded=0;whiteSpace=wrap;html=1;fillColor=#fff2cc;strokeColor=#d6b656;" parent="127" vertex="1">
                    <mxGeometry y="8" width="60" height="32" as="geometry"/>
                </mxCell>
                <mxCell id="129" value="" style="shape=trapezoid;perimeter=trapezoidPerimeter;whiteSpace=wrap;html=1;fixedSize=1;size=10;fillColor=#fff2cc;strokeColor=#d6b656;" parent="127" vertex="1">
                    <mxGeometry width="23.076923076923077" height="8.88888888888889" as="geometry"/>
                </mxCell>
                <mxCell id="130" value="users" style="text;html=1;align=center;verticalAlign=middle;resizable=0;points=[];autosize=1;strokeColor=none;fillColor=none;" parent="125" vertex="1">
                    <mxGeometry x="20" y="41.89" width="50" height="30" as="geometry"/>
                </mxCell>
                <mxCell id="131" value="" style="group" parent="1" vertex="1" connectable="0">
                    <mxGeometry x="379" y="1180" width="70" height="70" as="geometry"/>
                </mxCell>
                <mxCell id="173" style="edgeStyle=none;html=1;endArrow=none;endFill=0;" parent="131" source="132" edge="1">
                    <mxGeometry relative="1" as="geometry">
                        <mxPoint x="-39" y="20" as="targetPoint"/>
                    </mxGeometry>
                </mxCell>
                <mxCell id="132" value="html" style="rounded=0;whiteSpace=wrap;html=1;" parent="131" vertex="1">
                    <mxGeometry x="10" width="40" height="40" as="geometry"/>
                </mxCell>
                <mxCell id="133" value="login.html" style="text;html=1;align=center;verticalAlign=middle;resizable=0;points=[];autosize=1;strokeColor=none;fillColor=none;" parent="131" vertex="1">
                    <mxGeometry x="-5" y="40" width="70" height="30" as="geometry"/>
                </mxCell>
                <mxCell id="143" value="" style="group" parent="1" vertex="1" connectable="0">
                    <mxGeometry x="380" y="1250" width="75" height="70" as="geometry"/>
                </mxCell>
                <mxCell id="172" style="edgeStyle=none;html=1;endArrow=none;endFill=0;" parent="143" source="144" edge="1">
                    <mxGeometry relative="1" as="geometry">
                        <mxPoint x="-40" y="20" as="targetPoint"/>
                    </mxGeometry>
                </mxCell>
                <mxCell id="144" value="html" style="rounded=0;whiteSpace=wrap;html=1;" parent="143" vertex="1">
                    <mxGeometry x="10" width="40" height="40" as="geometry"/>
                </mxCell>
                <mxCell id="145" value="register.html" style="text;html=1;align=center;verticalAlign=middle;resizable=0;points=[];autosize=1;strokeColor=none;fillColor=none;" parent="143" vertex="1">
                    <mxGeometry x="-15" y="40" width="90" height="30" as="geometry"/>
                </mxCell>
                <mxCell id="146" value="" style="group" parent="1" vertex="1" connectable="0">
                    <mxGeometry x="380" y="1320" width="75" height="70" as="geometry"/>
                </mxCell>
                <mxCell id="171" style="edgeStyle=none;html=1;endArrow=none;endFill=0;" parent="146" source="147" edge="1">
                    <mxGeometry relative="1" as="geometry">
                        <mxPoint x="-40" y="20" as="targetPoint"/>
                    </mxGeometry>
                </mxCell>
                <mxCell id="147" value="html" style="rounded=0;whiteSpace=wrap;html=1;" parent="146" vertex="1">
                    <mxGeometry x="10" width="40" height="40" as="geometry"/>
                </mxCell>
                <mxCell id="148" value="mypage.html" style="text;html=1;align=center;verticalAlign=middle;resizable=0;points=[];autosize=1;strokeColor=none;fillColor=none;" parent="146" vertex="1">
                    <mxGeometry x="-15" y="40" width="90" height="30" as="geometry"/>
                </mxCell>
                <mxCell id="149" value="" style="group" parent="1" vertex="1" connectable="0">
                    <mxGeometry x="379" y="1390" width="90" height="70" as="geometry"/>
                </mxCell>
                <mxCell id="150" value="html" style="rounded=0;whiteSpace=wrap;html=1;" parent="149" vertex="1">
                    <mxGeometry x="10" width="40" height="40" as="geometry"/>
                </mxCell>
                <mxCell id="151" value="address_form.html" style="text;html=1;align=center;verticalAlign=middle;resizable=0;points=[];autosize=1;strokeColor=none;fillColor=none;" parent="149" vertex="1">
                    <mxGeometry x="-30" y="40" width="120" height="30" as="geometry"/>
                </mxCell>
                <mxCell id="152" style="edgeStyle=none;html=1;entryX=0;entryY=0.5;entryDx=0;entryDy=0;endArrow=none;endFill=0;rounded=0;curved=0;exitX=0.51;exitY=0.903;exitDx=0;exitDy=0;exitPerimeter=0;" parent="1" source="66" target="71" edge="1">
                    <mxGeometry relative="1" as="geometry">
                        <Array as="points">
                            <mxPoint x="70" y="204"/>
                        </Array>
                    </mxGeometry>
                </mxCell>
                <mxCell id="153" style="edgeStyle=none;html=1;entryX=0;entryY=0.5;entryDx=0;entryDy=0;endArrow=none;endFill=0;rounded=0;curved=0;" parent="1" source="73" target="86" edge="1">
                    <mxGeometry relative="1" as="geometry">
                        <mxPoint x="151" y="240" as="sourcePoint"/>
                        <mxPoint x="200" y="321" as="targetPoint"/>
                        <Array as="points">
                            <mxPoint x="150" y="260"/>
                        </Array>
                    </mxGeometry>
                </mxCell>
                <mxCell id="156" style="edgeStyle=none;html=1;rounded=0;curved=0;endArrow=none;endFill=0;" parent="1" source="154" edge="1">
                    <mxGeometry relative="1" as="geometry">
                        <mxPoint x="70" y="130" as="targetPoint"/>
                    </mxGeometry>
                </mxCell>
                <mxCell id="154" value="py" style="rounded=0;whiteSpace=wrap;html=1;" parent="1" vertex="1">
                    <mxGeometry x="130" y="110" width="40" height="40" as="geometry"/>
                </mxCell>
                <mxCell id="155" value="manage.py" style="text;html=1;align=center;verticalAlign=middle;resizable=0;points=[];autosize=1;strokeColor=none;fillColor=none;" parent="1" vertex="1">
                    <mxGeometry x="110" y="150" width="80" height="30" as="geometry"/>
                </mxCell>
                <mxCell id="157" style="edgeStyle=none;html=1;entryX=0;entryY=0.5;entryDx=0;entryDy=0;endArrow=none;endFill=0;rounded=0;curved=0;" parent="1" target="80" edge="1">
                    <mxGeometry relative="1" as="geometry">
                        <mxPoint x="150" y="260" as="sourcePoint"/>
                        <mxPoint x="230" y="278" as="targetPoint"/>
                        <Array as="points">
                            <mxPoint x="150" y="540"/>
                        </Array>
                    </mxGeometry>
                </mxCell>
                <mxCell id="161" style="edgeStyle=none;html=1;entryX=0;entryY=0.5;entryDx=0;entryDy=0;endArrow=none;endFill=0;rounded=0;curved=0;" parent="1" source="66" target="97" edge="1">
                    <mxGeometry relative="1" as="geometry">
                        <mxPoint x="35" y="360" as="sourcePoint"/>
                        <mxPoint x="115" y="640" as="targetPoint"/>
                        <Array as="points">
                            <mxPoint x="70" y="634"/>
                        </Array>
                    </mxGeometry>
                </mxCell>
                <mxCell id="162" style="edgeStyle=none;html=1;entryX=0;entryY=0.5;entryDx=0;entryDy=0;endArrow=none;endFill=0;rounded=0;curved=0;exitX=0.5;exitY=1.03;exitDx=0;exitDy=0;exitPerimeter=0;" parent="1" source="99" target="113" edge="1">
                    <mxGeometry relative="1" as="geometry">
                        <mxPoint x="150" y="695" as="sourcePoint"/>
                        <mxPoint x="230" y="970" as="targetPoint"/>
                        <Array as="points">
                            <mxPoint x="150" y="990"/>
                        </Array>
                    </mxGeometry>
                </mxCell>
                <mxCell id="168" style="edgeStyle=none;html=1;entryX=0;entryY=0.5;entryDx=0;entryDy=0;endArrow=none;endFill=0;rounded=0;curved=0;" parent="1" target="122" edge="1">
                    <mxGeometry relative="1" as="geometry">
                        <mxPoint x="150" y="990" as="sourcePoint"/>
                        <mxPoint x="180" y="1180" as="targetPoint"/>
                        <Array as="points">
                            <mxPoint x="150" y="1074"/>
                        </Array>
                    </mxGeometry>
                </mxCell>
                <mxCell id="169" style="edgeStyle=none;html=1;entryX=0;entryY=0.5;entryDx=0;entryDy=0;endArrow=none;endFill=0;rounded=0;curved=0;exitX=0.488;exitY=1.004;exitDx=0;exitDy=0;exitPerimeter=0;" parent="1" source="124" target="128" edge="1">
                    <mxGeometry relative="1" as="geometry">
                        <mxPoint x="180" y="1085" as="sourcePoint"/>
                        <mxPoint x="255" y="1169" as="targetPoint"/>
                        <Array as="points">
                            <mxPoint x="254" y="1144"/>
                        </Array>
                    </mxGeometry>
                </mxCell>
                <mxCell id="170" style="edgeStyle=none;html=1;entryX=0;entryY=0.5;entryDx=0;entryDy=0;endArrow=none;endFill=0;rounded=0;curved=0;" parent="1" target="150" edge="1">
                    <mxGeometry relative="1" as="geometry">
                        <mxPoint x="340" y="1180" as="sourcePoint"/>
                        <mxPoint x="379" y="1222" as="targetPoint"/>
                        <Array as="points">
                            <mxPoint x="340" y="1410"/>
                        </Array>
                    </mxGeometry>
                </mxCell>
                <mxCell id="220" value="" style="group" parent="1" vertex="1" connectable="0">
                    <mxGeometry x="130" y="2780" width="284" height="620" as="geometry"/>
                </mxCell>
                <mxCell id="279" value="test.py" style="text;html=1;align=center;verticalAlign=middle;resizable=0;points=[];autosize=1;strokeColor=none;fillColor=none;" parent="220" vertex="1">
                    <mxGeometry x="105" y="-110" width="60" height="30" as="geometry"/>
                </mxCell>
                <mxCell id="283" value="" style="group" parent="220" vertex="1" connectable="0">
                    <mxGeometry x="210" y="420" width="65" height="62" as="geometry"/>
                </mxCell>
                <mxCell id="284" value="" style="rounded=0;whiteSpace=wrap;html=1;fillColor=#fff2cc;strokeColor=#d6b656;" parent="283" vertex="1">
                    <mxGeometry width="60" height="32" as="geometry"/>
                </mxCell>
                <mxCell id="285" value="cart" style="text;html=1;align=center;verticalAlign=middle;resizable=0;points=[];autosize=1;strokeColor=none;fillColor=none;" parent="283" vertex="1">
                    <mxGeometry x="10" y="32" width="40" height="30" as="geometry"/>
                </mxCell>
                <mxCell id="288" value="test.py" style="text;html=1;align=center;verticalAlign=middle;resizable=0;points=[];autosize=1;strokeColor=none;fillColor=none;" parent="220" vertex="1">
                    <mxGeometry x="105" y="590" width="60" height="30" as="geometry"/>
                </mxCell>
                <mxCell id="289" value="py" style="rounded=0;whiteSpace=wrap;html=1;" parent="220" vertex="1">
                    <mxGeometry x="115" y="550" width="40" height="40" as="geometry"/>
                </mxCell>
                <mxCell id="290" style="edgeStyle=none;html=1;rounded=0;curved=0;endArrow=none;endFill=0;exitX=0;exitY=0.5;exitDx=0;exitDy=0;" parent="220" source="289" edge="1">
                    <mxGeometry relative="1" as="geometry">
                        <mxPoint x="30" y="360" as="targetPoint"/>
                        <Array as="points">
                            <mxPoint x="30" y="570"/>
                        </Array>
                        <mxPoint x="105" y="446" as="sourcePoint"/>
                    </mxGeometry>
                </mxCell>
                <mxCell id="221" value="" style="group" parent="1" vertex="1" connectable="0">
                    <mxGeometry x="130" y="1880" width="240" height="568" as="geometry"/>
                </mxCell>
                <mxCell id="222" value="" style="group" parent="221" vertex="1" connectable="0">
                    <mxGeometry width="65" height="62" as="geometry"/>
                </mxCell>
                <mxCell id="281" style="edgeStyle=none;html=1;endArrow=none;endFill=0;" parent="222" source="223" edge="1">
                    <mxGeometry relative="1" as="geometry">
                        <mxPoint x="-60" y="16" as="targetPoint"/>
                    </mxGeometry>
                </mxCell>
                <mxCell id="223" value="" style="rounded=0;whiteSpace=wrap;html=1;fillColor=#fff2cc;strokeColor=#d6b656;" parent="222" vertex="1">
                    <mxGeometry width="60" height="32" as="geometry"/>
                </mxCell>
                <mxCell id="224" value="products" style="text;html=1;align=center;verticalAlign=middle;resizable=0;points=[];autosize=1;strokeColor=none;fillColor=none;" parent="222" vertex="1">
                    <mxGeometry x="-5" y="32" width="70" height="30" as="geometry"/>
                </mxCell>
                <mxCell id="225" value="" style="group" parent="221" vertex="1" connectable="0">
                    <mxGeometry x="105" y="70" width="70" height="70" as="geometry"/>
                </mxCell>
                <mxCell id="226" style="edgeStyle=none;html=1;endArrow=none;endFill=0;" parent="225" source="227" edge="1">
                    <mxGeometry relative="1" as="geometry">
                        <mxPoint x="-70" y="20" as="targetPoint"/>
                    </mxGeometry>
                </mxCell>
                <mxCell id="227" value="py" style="rounded=0;whiteSpace=wrap;html=1;" parent="225" vertex="1">
                    <mxGeometry x="10" width="40" height="40" as="geometry"/>
                </mxCell>
                <mxCell id="228" value="__init__.py" style="text;html=1;align=center;verticalAlign=middle;resizable=0;points=[];autosize=1;strokeColor=none;fillColor=none;" parent="225" vertex="1">
                    <mxGeometry x="-10" y="40" width="80" height="30" as="geometry"/>
                </mxCell>
                <mxCell id="229" value="" style="group" parent="221" vertex="1" connectable="0">
                    <mxGeometry x="105" y="140" width="70" height="70" as="geometry"/>
                </mxCell>
                <mxCell id="230" style="edgeStyle=none;html=1;endArrow=none;endFill=0;" parent="229" source="231" edge="1">
                    <mxGeometry relative="1" as="geometry">
                        <mxPoint x="-70" y="20" as="targetPoint"/>
                    </mxGeometry>
                </mxCell>
                <mxCell id="231" value="py" style="rounded=0;whiteSpace=wrap;html=1;" parent="229" vertex="1">
                    <mxGeometry x="10" width="40" height="40" as="geometry"/>
                </mxCell>
                <mxCell id="232" value="admin.py" style="text;html=1;align=center;verticalAlign=middle;resizable=0;points=[];autosize=1;strokeColor=none;fillColor=none;" parent="229" vertex="1">
                    <mxGeometry x="-5" y="40" width="70" height="30" as="geometry"/>
                </mxCell>
                <mxCell id="233" value="" style="group" parent="221" vertex="1" connectable="0">
                    <mxGeometry x="105" y="210" width="70" height="70" as="geometry"/>
                </mxCell>
                <mxCell id="234" style="edgeStyle=none;html=1;endArrow=none;endFill=0;" parent="233" source="235" edge="1">
                    <mxGeometry relative="1" as="geometry">
                        <mxPoint x="-70" y="20" as="targetPoint"/>
                    </mxGeometry>
                </mxCell>
                <mxCell id="235" value="py" style="rounded=0;whiteSpace=wrap;html=1;" parent="233" vertex="1">
                    <mxGeometry x="10" width="40" height="40" as="geometry"/>
                </mxCell>
                <mxCell id="236" value="models.py" style="text;html=1;align=center;verticalAlign=middle;resizable=0;points=[];autosize=1;strokeColor=none;fillColor=none;" parent="233" vertex="1">
                    <mxGeometry x="-10" y="40" width="80" height="30" as="geometry"/>
                </mxCell>
                <mxCell id="237" value="" style="group" parent="221" vertex="1" connectable="0">
                    <mxGeometry x="105" y="280" width="70" height="70" as="geometry"/>
                </mxCell>
                <mxCell id="238" style="edgeStyle=none;html=1;endArrow=none;endFill=0;" parent="237" source="239" edge="1">
                    <mxGeometry relative="1" as="geometry">
                        <mxPoint x="-70" y="20" as="targetPoint"/>
                    </mxGeometry>
                </mxCell>
                <mxCell id="239" value="py" style="rounded=0;whiteSpace=wrap;html=1;" parent="237" vertex="1">
                    <mxGeometry x="10" width="40" height="40" as="geometry"/>
                </mxCell>
                <mxCell id="240" value="views.py" style="text;html=1;align=center;verticalAlign=middle;resizable=0;points=[];autosize=1;strokeColor=none;fillColor=none;" parent="237" vertex="1">
                    <mxGeometry x="-5" y="40" width="70" height="30" as="geometry"/>
                </mxCell>
                <mxCell id="241" value="py" style="rounded=0;whiteSpace=wrap;html=1;" parent="221" vertex="1">
                    <mxGeometry x="115" y="350" width="40" height="40" as="geometry"/>
                </mxCell>
                <mxCell id="242" style="edgeStyle=none;html=1;entryX=0;entryY=0.5;entryDx=0;entryDy=0;endArrow=none;endFill=0;rounded=0;curved=0;" parent="221" edge="1">
                    <mxGeometry relative="1" as="geometry">
                        <mxPoint x="30" y="61" as="sourcePoint"/>
                        <mxPoint x="115" y="370" as="targetPoint"/>
                        <Array as="points">
                            <mxPoint x="30" y="370"/>
                        </Array>
                    </mxGeometry>
                </mxCell>
                <mxCell id="243" value="urls.py" style="text;html=1;align=center;verticalAlign=middle;resizable=0;points=[];autosize=1;strokeColor=none;fillColor=none;" parent="221" vertex="1">
                    <mxGeometry x="105" y="388" width="60" height="30" as="geometry"/>
                </mxCell>
                <mxCell id="244" value="" style="group" parent="221" vertex="1" connectable="0">
                    <mxGeometry x="105" y="420" width="70" height="62" as="geometry"/>
                </mxCell>
                <mxCell id="245" value="" style="rounded=0;whiteSpace=wrap;html=1;fillColor=#fff2cc;strokeColor=#d6b656;" parent="244" vertex="1">
                    <mxGeometry width="60" height="32" as="geometry"/>
                </mxCell>
                <mxCell id="246" value="templates" style="text;html=1;align=center;verticalAlign=middle;resizable=0;points=[];autosize=1;strokeColor=none;fillColor=none;" parent="244" vertex="1">
                    <mxGeometry x="-10" y="32" width="80" height="30" as="geometry"/>
                </mxCell>
                <mxCell id="247" style="edgeStyle=none;html=1;rounded=0;curved=0;endArrow=none;endFill=0;" parent="221" edge="1">
                    <mxGeometry relative="1" as="geometry">
                        <mxPoint x="30" y="370" as="targetPoint"/>
                        <Array as="points">
                            <mxPoint x="30" y="436"/>
                        </Array>
                        <mxPoint x="105" y="436" as="sourcePoint"/>
                    </mxGeometry>
                </mxCell>
                <mxCell id="250" style="edgeStyle=none;html=1;entryX=0;entryY=0.5;entryDx=0;entryDy=0;rounded=0;curved=0;endArrow=none;endFill=0;exitX=0.569;exitY=0.922;exitDx=0;exitDy=0;exitPerimeter=0;" parent="1" source="252" target="248" edge="1">
                    <mxGeometry relative="1" as="geometry">
                        <Array as="points">
                            <mxPoint x="370" y="2522"/>
                        </Array>
                        <mxPoint x="370" y="2500" as="sourcePoint"/>
                        <mxPoint x="546" y="2538.39" as="targetPoint"/>
                    </mxGeometry>
                </mxCell>
                <mxCell id="255" value="" style="group" parent="1" vertex="1" connectable="0">
                    <mxGeometry x="435" y="2500" width="75" height="70" as="geometry"/>
                </mxCell>
                <mxCell id="253" value="" style="group" parent="255" vertex="1" connectable="0">
                    <mxGeometry width="75" height="70" as="geometry"/>
                </mxCell>
                <mxCell id="260" value="" style="group" parent="253" vertex="1" connectable="0">
                    <mxGeometry x="-20" y="2" width="95" height="68" as="geometry"/>
                </mxCell>
                <mxCell id="249" value="products_list.html" style="text;html=1;align=center;verticalAlign=middle;resizable=0;points=[];autosize=1;strokeColor=none;fillColor=none;" parent="260" vertex="1">
                    <mxGeometry x="-25" y="38" width="120" height="30" as="geometry"/>
                </mxCell>
                <mxCell id="248" value="html" style="rounded=0;whiteSpace=wrap;html=1;" parent="260" vertex="1">
                    <mxGeometry x="10" width="40" height="40" as="geometry"/>
                </mxCell>
                <mxCell id="254" style="edgeStyle=none;html=1;entryX=0;entryY=0.5;entryDx=0;entryDy=0;rounded=0;curved=0;endArrow=none;endFill=0;exitX=0.535;exitY=1.107;exitDx=0;exitDy=0;exitPerimeter=0;" parent="1" source="246" target="251" edge="1">
                    <mxGeometry relative="1" as="geometry">
                        <Array as="points">
                            <mxPoint x="268" y="2430"/>
                        </Array>
                        <mxPoint x="265" y="2390" as="sourcePoint"/>
                        <mxPoint x="326" y="2430" as="targetPoint"/>
                    </mxGeometry>
                </mxCell>
                <mxCell id="259" value="" style="group" parent="1" vertex="1" connectable="0">
                    <mxGeometry x="335" y="2414" width="65" height="62" as="geometry"/>
                </mxCell>
                <mxCell id="252" value="products" style="text;html=1;align=center;verticalAlign=middle;resizable=0;points=[];autosize=1;strokeColor=none;fillColor=none;" parent="259" vertex="1">
                    <mxGeometry x="-5" y="32" width="70" height="30" as="geometry"/>
                </mxCell>
                <mxCell id="251" value="" style="rounded=0;whiteSpace=wrap;html=1;fillColor=#fff2cc;strokeColor=#d6b656;" parent="259" vertex="1">
                    <mxGeometry width="60" height="32" as="geometry"/>
                </mxCell>
                <mxCell id="261" value="" style="group" parent="1" vertex="1" connectable="0">
                    <mxGeometry x="415" y="2570" width="95" height="68" as="geometry"/>
                </mxCell>
                <mxCell id="262" value="product_detail.html" style="text;html=1;align=center;verticalAlign=middle;resizable=0;points=[];autosize=1;strokeColor=none;fillColor=none;" parent="261" vertex="1">
                    <mxGeometry x="-25" y="38" width="120" height="30" as="geometry"/>
                </mxCell>
                <mxCell id="272" style="edgeStyle=none;html=1;endArrow=none;endFill=0;rounded=0;curved=0;" parent="261" source="263" edge="1">
                    <mxGeometry relative="1" as="geometry">
                        <mxPoint x="-45" y="-50" as="targetPoint"/>
                        <Array as="points">
                            <mxPoint x="-45" y="20"/>
                        </Array>
                    </mxGeometry>
                </mxCell>
                <mxCell id="263" value="html" style="rounded=0;whiteSpace=wrap;html=1;" parent="261" vertex="1">
                    <mxGeometry x="10" width="40" height="40" as="geometry"/>
                </mxCell>
                <mxCell id="273" value="" style="group" parent="1" vertex="1" connectable="0">
                    <mxGeometry x="230" y="1460" width="90" height="70" as="geometry"/>
                </mxCell>
                <mxCell id="274" value="py" style="rounded=0;whiteSpace=wrap;html=1;" parent="273" vertex="1">
                    <mxGeometry x="10" width="40" height="40" as="geometry"/>
                </mxCell>
                <mxCell id="275" value="test.py" style="text;html=1;align=center;verticalAlign=middle;resizable=0;points=[];autosize=1;strokeColor=none;fillColor=none;" parent="273" vertex="1">
                    <mxGeometry y="40" width="60" height="30" as="geometry"/>
                </mxCell>
                <mxCell id="276" style="edgeStyle=none;html=1;entryX=0;entryY=0.5;entryDx=0;entryDy=0;endArrow=none;endFill=0;rounded=0;curved=0;" parent="1" target="274" edge="1">
                    <mxGeometry relative="1" as="geometry">
                        <mxPoint x="150" y="1070" as="sourcePoint"/>
                        <mxPoint x="230" y="1169" as="targetPoint"/>
                        <Array as="points">
                            <mxPoint x="150" y="1480"/>
                        </Array>
                    </mxGeometry>
                </mxCell>
                <mxCell id="277" value="" style="endArrow=none;html=1;" parent="1" edge="1">
                    <mxGeometry width="50" height="50" relative="1" as="geometry">
                        <mxPoint x="70" y="4770" as="sourcePoint"/>
                        <mxPoint x="70" y="630" as="targetPoint"/>
                    </mxGeometry>
                </mxCell>
                <mxCell id="278" value="py" style="rounded=0;whiteSpace=wrap;html=1;" parent="1" vertex="1">
                    <mxGeometry x="245" y="2630" width="40" height="40" as="geometry"/>
                </mxCell>
                <mxCell id="280" style="edgeStyle=none;html=1;rounded=0;curved=0;endArrow=none;endFill=0;exitX=0;exitY=0.5;exitDx=0;exitDy=0;" parent="1" source="278" edge="1">
                    <mxGeometry relative="1" as="geometry">
                        <mxPoint x="160" y="2310" as="targetPoint"/>
                        <Array as="points">
                            <mxPoint x="160" y="2650"/>
                        </Array>
                        <mxPoint x="220" y="2616" as="sourcePoint"/>
                    </mxGeometry>
                </mxCell>
                <mxCell id="176" value="cart" style="text;html=1;align=center;verticalAlign=middle;resizable=0;points=[];autosize=1;strokeColor=none;fillColor=none;" parent="1" vertex="1">
                    <mxGeometry x="140" y="2742" width="40" height="30" as="geometry"/>
                </mxCell>
                <mxCell id="194" value="" style="group" parent="1" vertex="1" connectable="0">
                    <mxGeometry x="235" y="2780" width="70" height="70" as="geometry"/>
                </mxCell>
                <mxCell id="195" style="edgeStyle=none;html=1;endArrow=none;endFill=0;" parent="194" source="196" edge="1">
                    <mxGeometry relative="1" as="geometry">
                        <mxPoint x="-70" y="20" as="targetPoint"/>
                    </mxGeometry>
                </mxCell>
                <mxCell id="196" value="py" style="rounded=0;whiteSpace=wrap;html=1;" parent="194" vertex="1">
                    <mxGeometry x="10" width="40" height="40" as="geometry"/>
                </mxCell>
                <mxCell id="197" value="__init__.py" style="text;html=1;align=center;verticalAlign=middle;resizable=0;points=[];autosize=1;strokeColor=none;fillColor=none;" parent="194" vertex="1">
                    <mxGeometry x="-10" y="40" width="80" height="30" as="geometry"/>
                </mxCell>
                <mxCell id="198" value="" style="group" parent="1" vertex="1" connectable="0">
                    <mxGeometry x="235" y="2850" width="70" height="70" as="geometry"/>
                </mxCell>
                <mxCell id="199" style="edgeStyle=none;html=1;endArrow=none;endFill=0;" parent="198" source="200" edge="1">
                    <mxGeometry relative="1" as="geometry">
                        <mxPoint x="-70" y="20" as="targetPoint"/>
                    </mxGeometry>
                </mxCell>
                <mxCell id="200" value="py" style="rounded=0;whiteSpace=wrap;html=1;" parent="198" vertex="1">
                    <mxGeometry x="10" width="40" height="40" as="geometry"/>
                </mxCell>
                <mxCell id="201" value="admin.py" style="text;html=1;align=center;verticalAlign=middle;resizable=0;points=[];autosize=1;strokeColor=none;fillColor=none;" parent="198" vertex="1">
                    <mxGeometry x="-5" y="40" width="70" height="30" as="geometry"/>
                </mxCell>
                <mxCell id="202" value="" style="group" parent="1" vertex="1" connectable="0">
                    <mxGeometry x="235" y="2920" width="70" height="70" as="geometry"/>
                </mxCell>
                <mxCell id="203" style="edgeStyle=none;html=1;endArrow=none;endFill=0;" parent="202" source="204" edge="1">
                    <mxGeometry relative="1" as="geometry">
                        <mxPoint x="-70" y="20" as="targetPoint"/>
                    </mxGeometry>
                </mxCell>
                <mxCell id="204" value="py" style="rounded=0;whiteSpace=wrap;html=1;" parent="202" vertex="1">
                    <mxGeometry x="10" width="40" height="40" as="geometry"/>
                </mxCell>
                <mxCell id="205" value="models.py" style="text;html=1;align=center;verticalAlign=middle;resizable=0;points=[];autosize=1;strokeColor=none;fillColor=none;" parent="202" vertex="1">
                    <mxGeometry x="-10" y="40" width="80" height="30" as="geometry"/>
                </mxCell>
                <mxCell id="206" value="" style="group" parent="1" vertex="1" connectable="0">
                    <mxGeometry x="235" y="2990" width="70" height="70" as="geometry"/>
                </mxCell>
                <mxCell id="207" style="edgeStyle=none;html=1;endArrow=none;endFill=0;" parent="206" source="208" edge="1">
                    <mxGeometry relative="1" as="geometry">
                        <mxPoint x="-70" y="20" as="targetPoint"/>
                    </mxGeometry>
                </mxCell>
                <mxCell id="208" value="py" style="rounded=0;whiteSpace=wrap;html=1;" parent="206" vertex="1">
                    <mxGeometry x="10" width="40" height="40" as="geometry"/>
                </mxCell>
                <mxCell id="209" value="views.py" style="text;html=1;align=center;verticalAlign=middle;resizable=0;points=[];autosize=1;strokeColor=none;fillColor=none;" parent="206" vertex="1">
                    <mxGeometry x="-5" y="40" width="70" height="30" as="geometry"/>
                </mxCell>
                <mxCell id="210" value="py" style="rounded=0;whiteSpace=wrap;html=1;" parent="1" vertex="1">
                    <mxGeometry x="245" y="3060" width="40" height="40" as="geometry"/>
                </mxCell>
                <mxCell id="211" style="edgeStyle=none;html=1;entryX=0;entryY=0.5;entryDx=0;entryDy=0;endArrow=none;endFill=0;rounded=0;curved=0;" parent="1" target="210" edge="1">
                    <mxGeometry relative="1" as="geometry">
                        <mxPoint x="160" y="2770" as="sourcePoint"/>
                        <mxPoint x="235" y="3084" as="targetPoint"/>
                        <Array as="points">
                            <mxPoint x="160" y="3080"/>
                        </Array>
                    </mxGeometry>
                </mxCell>
                <mxCell id="212" value="urls.py" style="text;html=1;align=center;verticalAlign=middle;resizable=0;points=[];autosize=1;strokeColor=none;fillColor=none;" parent="1" vertex="1">
                    <mxGeometry x="235" y="3098" width="60" height="30" as="geometry"/>
                </mxCell>
                <mxCell id="213" value="" style="group" parent="1" vertex="1" connectable="0">
                    <mxGeometry x="235" y="3130" width="65" height="62" as="geometry"/>
                </mxCell>
                <mxCell id="214" value="" style="rounded=0;whiteSpace=wrap;html=1;fillColor=#fff2cc;strokeColor=#d6b656;" parent="213" vertex="1">
                    <mxGeometry width="60" height="32" as="geometry"/>
                </mxCell>
                <mxCell id="215" value="template" style="text;html=1;align=center;verticalAlign=middle;resizable=0;points=[];autosize=1;strokeColor=none;fillColor=none;" parent="213" vertex="1">
                    <mxGeometry x="-5" y="32" width="70" height="30" as="geometry"/>
                </mxCell>
                <mxCell id="216" style="edgeStyle=none;html=1;rounded=0;curved=0;endArrow=none;endFill=0;" parent="1" source="214" edge="1">
                    <mxGeometry relative="1" as="geometry">
                        <mxPoint x="160" y="3080" as="targetPoint"/>
                        <Array as="points">
                            <mxPoint x="160" y="3146"/>
                        </Array>
                    </mxGeometry>
                </mxCell>
                <mxCell id="217" value="html" style="rounded=0;whiteSpace=wrap;html=1;" parent="1" vertex="1">
                    <mxGeometry x="415" y="3260" width="40" height="40" as="geometry"/>
                </mxCell>
                <mxCell id="219" style="edgeStyle=none;html=1;entryX=0;entryY=0.5;entryDx=0;entryDy=0;rounded=0;curved=0;endArrow=none;endFill=0;" parent="1" source="215" target="284" edge="1">
                    <mxGeometry relative="1" as="geometry">
                        <Array as="points">
                            <mxPoint x="265" y="3216"/>
                        </Array>
                    </mxGeometry>
                </mxCell>
                <mxCell id="282" style="edgeStyle=none;html=1;endArrow=none;endFill=0;" parent="1" source="174" edge="1">
                    <mxGeometry relative="1" as="geometry">
                        <mxPoint x="70" y="2726" as="targetPoint"/>
                    </mxGeometry>
                </mxCell>
                <mxCell id="174" value="" style="rounded=0;whiteSpace=wrap;html=1;fillColor=#fff2cc;strokeColor=#d6b656;" parent="1" vertex="1">
                    <mxGeometry x="130" y="2710" width="60" height="32" as="geometry"/>
                </mxCell>
                <mxCell id="286" style="edgeStyle=none;html=1;entryX=0;entryY=0.5;entryDx=0;entryDy=0;rounded=0;curved=0;endArrow=none;endFill=0;" parent="1" source="285" target="217" edge="1">
                    <mxGeometry relative="1" as="geometry">
                        <Array as="points">
                            <mxPoint x="370" y="3280"/>
                        </Array>
                        <mxPoint x="275" y="3202" as="sourcePoint"/>
                        <mxPoint x="350" y="3226" as="targetPoint"/>
                    </mxGeometry>
                </mxCell>
                <mxCell id="287" value="cart.html" style="text;html=1;align=center;verticalAlign=middle;resizable=0;points=[];autosize=1;strokeColor=none;fillColor=none;" parent="1" vertex="1">
                    <mxGeometry x="400" y="3300" width="70" height="30" as="geometry"/>
                </mxCell>
                <mxCell id="291" value="" style="group" parent="1" vertex="1" connectable="0">
                    <mxGeometry x="130" y="3480" width="284" height="620" as="geometry"/>
                </mxCell>
                <mxCell id="292" value="test.py" style="text;html=1;align=center;verticalAlign=middle;resizable=0;points=[];autosize=1;strokeColor=none;fillColor=none;" parent="291" vertex="1">
                    <mxGeometry x="105" y="-110" width="60" height="30" as="geometry"/>
                </mxCell>
                <mxCell id="293" value="" style="group" parent="291" vertex="1" connectable="0">
                    <mxGeometry x="210" y="420" width="65" height="62" as="geometry"/>
                </mxCell>
                <mxCell id="294" value="" style="rounded=0;whiteSpace=wrap;html=1;fillColor=#fff2cc;strokeColor=#d6b656;" parent="293" vertex="1">
                    <mxGeometry width="60" height="32" as="geometry"/>
                </mxCell>
                <mxCell id="295" value="orders" style="text;html=1;align=center;verticalAlign=middle;resizable=0;points=[];autosize=1;strokeColor=none;fillColor=none;" parent="293" vertex="1">
                    <mxGeometry y="32" width="60" height="30" as="geometry"/>
                </mxCell>
                <mxCell id="298" style="edgeStyle=none;html=1;rounded=0;curved=0;endArrow=none;endFill=0;exitX=0;exitY=0.5;exitDx=0;exitDy=0;" parent="291" source="297" edge="1">
                    <mxGeometry relative="1" as="geometry">
                        <mxPoint x="30" y="360" as="targetPoint"/>
                        <Array as="points">
                            <mxPoint x="30" y="650"/>
                        </Array>
                        <mxPoint x="105" y="446" as="sourcePoint"/>
                    </mxGeometry>
                </mxCell>
                <mxCell id="299" value="orders" style="text;html=1;align=center;verticalAlign=middle;resizable=0;points=[];autosize=1;strokeColor=none;fillColor=none;" parent="1" vertex="1">
                    <mxGeometry x="130" y="3442" width="60" height="30" as="geometry"/>
                </mxCell>
                <mxCell id="300" value="" style="group" parent="1" vertex="1" connectable="0">
                    <mxGeometry x="235" y="3480" width="70" height="70" as="geometry"/>
                </mxCell>
                <mxCell id="301" style="edgeStyle=none;html=1;endArrow=none;endFill=0;" parent="300" source="302" edge="1">
                    <mxGeometry relative="1" as="geometry">
                        <mxPoint x="-70" y="20" as="targetPoint"/>
                    </mxGeometry>
                </mxCell>
                <mxCell id="302" value="py" style="rounded=0;whiteSpace=wrap;html=1;" parent="300" vertex="1">
                    <mxGeometry x="10" width="40" height="40" as="geometry"/>
                </mxCell>
                <mxCell id="303" value="__init__.py" style="text;html=1;align=center;verticalAlign=middle;resizable=0;points=[];autosize=1;strokeColor=none;fillColor=none;" parent="300" vertex="1">
                    <mxGeometry x="-10" y="40" width="80" height="30" as="geometry"/>
                </mxCell>
                <mxCell id="304" value="" style="group" parent="1" vertex="1" connectable="0">
                    <mxGeometry x="235" y="3550" width="70" height="70" as="geometry"/>
                </mxCell>
                <mxCell id="305" style="edgeStyle=none;html=1;endArrow=none;endFill=0;" parent="304" source="306" edge="1">
                    <mxGeometry relative="1" as="geometry">
                        <mxPoint x="-70" y="20" as="targetPoint"/>
                    </mxGeometry>
                </mxCell>
                <mxCell id="306" value="py" style="rounded=0;whiteSpace=wrap;html=1;" parent="304" vertex="1">
                    <mxGeometry x="10" width="40" height="40" as="geometry"/>
                </mxCell>
                <mxCell id="307" value="admin.py" style="text;html=1;align=center;verticalAlign=middle;resizable=0;points=[];autosize=1;strokeColor=none;fillColor=none;" parent="304" vertex="1">
                    <mxGeometry x="-5" y="40" width="70" height="30" as="geometry"/>
                </mxCell>
                <mxCell id="308" value="" style="group" parent="1" vertex="1" connectable="0">
                    <mxGeometry x="235" y="3620" width="70" height="70" as="geometry"/>
                </mxCell>
                <mxCell id="309" style="edgeStyle=none;html=1;endArrow=none;endFill=0;" parent="308" source="310" edge="1">
                    <mxGeometry relative="1" as="geometry">
                        <mxPoint x="-70" y="20" as="targetPoint"/>
                    </mxGeometry>
                </mxCell>
                <mxCell id="310" value="py" style="rounded=0;whiteSpace=wrap;html=1;" parent="308" vertex="1">
                    <mxGeometry x="10" width="40" height="40" as="geometry"/>
                </mxCell>
                <mxCell id="311" value="models.py" style="text;html=1;align=center;verticalAlign=middle;resizable=0;points=[];autosize=1;strokeColor=none;fillColor=none;" parent="308" vertex="1">
                    <mxGeometry x="-10" y="40" width="80" height="30" as="geometry"/>
                </mxCell>
                <mxCell id="312" value="" style="group" parent="1" vertex="1" connectable="0">
                    <mxGeometry x="235" y="3690" width="70" height="70" as="geometry"/>
                </mxCell>
                <mxCell id="313" style="edgeStyle=none;html=1;endArrow=none;endFill=0;" parent="312" source="314" edge="1">
                    <mxGeometry relative="1" as="geometry">
                        <mxPoint x="-70" y="20" as="targetPoint"/>
                    </mxGeometry>
                </mxCell>
                <mxCell id="314" value="py" style="rounded=0;whiteSpace=wrap;html=1;" parent="312" vertex="1">
                    <mxGeometry x="10" width="40" height="40" as="geometry"/>
                </mxCell>
                <mxCell id="315" value="views.py" style="text;html=1;align=center;verticalAlign=middle;resizable=0;points=[];autosize=1;strokeColor=none;fillColor=none;" parent="312" vertex="1">
                    <mxGeometry x="-5" y="40" width="70" height="30" as="geometry"/>
                </mxCell>
                <mxCell id="316" value="py" style="rounded=0;whiteSpace=wrap;html=1;" parent="1" vertex="1">
                    <mxGeometry x="245" y="3760" width="40" height="40" as="geometry"/>
                </mxCell>
                <mxCell id="317" style="edgeStyle=none;html=1;entryX=0;entryY=0.5;entryDx=0;entryDy=0;endArrow=none;endFill=0;rounded=0;curved=0;" parent="1" target="316" edge="1">
                    <mxGeometry relative="1" as="geometry">
                        <mxPoint x="160" y="3470" as="sourcePoint"/>
                        <mxPoint x="235" y="3784" as="targetPoint"/>
                        <Array as="points">
                            <mxPoint x="160" y="3780"/>
                        </Array>
                    </mxGeometry>
                </mxCell>
                <mxCell id="318" value="urls.py" style="text;html=1;align=center;verticalAlign=middle;resizable=0;points=[];autosize=1;strokeColor=none;fillColor=none;" parent="1" vertex="1">
                    <mxGeometry x="235" y="3798" width="60" height="30" as="geometry"/>
                </mxCell>
                <mxCell id="319" value="" style="group" parent="1" vertex="1" connectable="0">
                    <mxGeometry x="235" y="3830" width="65" height="62" as="geometry"/>
                </mxCell>
                <mxCell id="320" value="" style="rounded=0;whiteSpace=wrap;html=1;fillColor=#fff2cc;strokeColor=#d6b656;" parent="319" vertex="1">
                    <mxGeometry width="60" height="32" as="geometry"/>
                </mxCell>
                <mxCell id="321" value="template" style="text;html=1;align=center;verticalAlign=middle;resizable=0;points=[];autosize=1;strokeColor=none;fillColor=none;" parent="319" vertex="1">
                    <mxGeometry x="-5" y="32" width="70" height="30" as="geometry"/>
                </mxCell>
                <mxCell id="322" style="edgeStyle=none;html=1;rounded=0;curved=0;endArrow=none;endFill=0;" parent="1" source="320" edge="1">
                    <mxGeometry relative="1" as="geometry">
                        <mxPoint x="160" y="3780" as="targetPoint"/>
                        <Array as="points">
                            <mxPoint x="160" y="3846"/>
                        </Array>
                    </mxGeometry>
                </mxCell>
                <mxCell id="323" value="html" style="rounded=0;whiteSpace=wrap;html=1;" parent="1" vertex="1">
                    <mxGeometry x="415" y="3960" width="40" height="40" as="geometry"/>
                </mxCell>
                <mxCell id="324" style="edgeStyle=none;html=1;entryX=0;entryY=0.5;entryDx=0;entryDy=0;rounded=0;curved=0;endArrow=none;endFill=0;" parent="1" source="321" target="294" edge="1">
                    <mxGeometry relative="1" as="geometry">
                        <Array as="points">
                            <mxPoint x="265" y="3916"/>
                        </Array>
                    </mxGeometry>
                </mxCell>
                <mxCell id="331" style="edgeStyle=none;html=1;endArrow=none;endFill=0;" parent="1" source="325" edge="1">
                    <mxGeometry relative="1" as="geometry">
                        <mxPoint x="70" y="3426" as="targetPoint"/>
                    </mxGeometry>
                </mxCell>
                <mxCell id="325" value="" style="rounded=0;whiteSpace=wrap;html=1;fillColor=#fff2cc;strokeColor=#d6b656;" parent="1" vertex="1">
                    <mxGeometry x="130" y="3410" width="60" height="32" as="geometry"/>
                </mxCell>
                <mxCell id="326" style="edgeStyle=none;html=1;entryX=0;entryY=0.5;entryDx=0;entryDy=0;rounded=0;curved=0;endArrow=none;endFill=0;" parent="1" source="295" target="323" edge="1">
                    <mxGeometry relative="1" as="geometry">
                        <Array as="points">
                            <mxPoint x="370" y="3980"/>
                        </Array>
                        <mxPoint x="275" y="3902" as="sourcePoint"/>
                        <mxPoint x="350" y="3926" as="targetPoint"/>
                    </mxGeometry>
                </mxCell>
                <mxCell id="327" value="checkout.html" style="text;html=1;align=center;verticalAlign=middle;resizable=0;points=[];autosize=1;strokeColor=none;fillColor=none;" parent="1" vertex="1">
                    <mxGeometry x="385" y="4000" width="100" height="30" as="geometry"/>
                </mxCell>
                <mxCell id="296" value="test.py" style="text;html=1;align=center;verticalAlign=middle;resizable=0;points=[];autosize=1;strokeColor=none;fillColor=none;" parent="1" vertex="1">
                    <mxGeometry x="235" y="4150" width="60" height="30" as="geometry"/>
                </mxCell>
                <mxCell id="297" value="py" style="rounded=0;whiteSpace=wrap;html=1;" parent="1" vertex="1">
                    <mxGeometry x="245" y="4110" width="40" height="40" as="geometry"/>
                </mxCell>
                <mxCell id="328" value="html" style="rounded=0;whiteSpace=wrap;html=1;" parent="1" vertex="1">
                    <mxGeometry x="415" y="4030" width="40" height="40" as="geometry"/>
                </mxCell>
                <mxCell id="329" style="edgeStyle=none;html=1;entryX=0;entryY=0.5;entryDx=0;entryDy=0;rounded=0;curved=0;endArrow=none;endFill=0;" parent="1" target="328" edge="1">
                    <mxGeometry relative="1" as="geometry">
                        <Array as="points">
                            <mxPoint x="370" y="4050"/>
                        </Array>
                        <mxPoint x="370" y="3980" as="sourcePoint"/>
                        <mxPoint x="350" y="3996" as="targetPoint"/>
                    </mxGeometry>
                </mxCell>
                <mxCell id="330" value="order_complete.html" style="text;html=1;align=center;verticalAlign=middle;resizable=0;points=[];autosize=1;strokeColor=none;fillColor=none;" parent="1" vertex="1">
                    <mxGeometry x="370" y="4070" width="130" height="30" as="geometry"/>
                </mxCell>
                <mxCell id="332" value="" style="group" parent="1" vertex="1" connectable="0">
                    <mxGeometry x="130" y="4180" width="65" height="62" as="geometry"/>
                </mxCell>
                <mxCell id="335" style="edgeStyle=none;html=1;endArrow=none;endFill=0;" parent="332" source="333" edge="1">
                    <mxGeometry relative="1" as="geometry">
                        <mxPoint x="-60" y="16" as="targetPoint"/>
                    </mxGeometry>
                </mxCell>
                <mxCell id="333" value="" style="rounded=0;whiteSpace=wrap;html=1;fillColor=#fff2cc;strokeColor=#d6b656;" parent="332" vertex="1">
                    <mxGeometry width="60" height="32" as="geometry"/>
                </mxCell>
                <mxCell id="334" value="static" style="text;html=1;align=center;verticalAlign=middle;resizable=0;points=[];autosize=1;strokeColor=none;fillColor=none;" parent="332" vertex="1">
                    <mxGeometry x="5" y="32" width="50" height="30" as="geometry"/>
                </mxCell>
                <mxCell id="336" value="" style="group" parent="1" vertex="1" connectable="0">
                    <mxGeometry x="240" y="4244" width="65" height="62" as="geometry"/>
                </mxCell>
                <mxCell id="338" value="" style="rounded=0;whiteSpace=wrap;html=1;fillColor=#fff2cc;strokeColor=#d6b656;" parent="336" vertex="1">
                    <mxGeometry width="60" height="32" as="geometry"/>
                </mxCell>
                <mxCell id="339" value="css" style="text;html=1;align=center;verticalAlign=middle;resizable=0;points=[];autosize=1;strokeColor=none;fillColor=none;" parent="336" vertex="1">
                    <mxGeometry x="10" y="32" width="40" height="30" as="geometry"/>
                </mxCell>
                <mxCell id="337" style="edgeStyle=none;html=1;endArrow=none;endFill=0;entryX=0.464;entryY=0.946;entryDx=0;entryDy=0;entryPerimeter=0;rounded=0;curved=0;targetPerimeterSpacing=-1;" parent="1" edge="1">
                    <mxGeometry relative="1" as="geometry">
                        <mxPoint x="158.20000000000005" y="4240.38" as="targetPoint"/>
                        <mxPoint x="240" y="4260" as="sourcePoint"/>
                        <Array as="points">
                            <mxPoint x="158" y="4260"/>
                        </Array>
                    </mxGeometry>
                </mxCell>
                <mxCell id="340" value="style.css" style="text;html=1;align=center;verticalAlign=middle;resizable=0;points=[];autosize=1;strokeColor=none;fillColor=none;" parent="1" vertex="1">
                    <mxGeometry x="332.5" y="4346" width="70" height="30" as="geometry"/>
                </mxCell>
                <mxCell id="341" value="css" style="rounded=0;whiteSpace=wrap;html=1;" parent="1" vertex="1">
                    <mxGeometry x="347.5" y="4306" width="40" height="40" as="geometry"/>
                </mxCell>
                <mxCell id="342" style="edgeStyle=none;html=1;entryX=0;entryY=0.5;entryDx=0;entryDy=0;rounded=0;curved=0;endArrow=none;endFill=0;" parent="1" source="339" target="341" edge="1">
                    <mxGeometry relative="1" as="geometry">
                        <Array as="points">
                            <mxPoint x="270" y="4326"/>
                        </Array>
                    </mxGeometry>
                </mxCell>
                <mxCell id="343" value="" style="group" parent="1" vertex="1" connectable="0">
                    <mxGeometry x="240" y="4370" width="65" height="62" as="geometry"/>
                </mxCell>
                <mxCell id="349" style="edgeStyle=none;html=1;rounded=0;curved=0;endArrow=none;endFill=0;exitX=0;exitY=0.5;exitDx=0;exitDy=0;" parent="343" source="344" edge="1">
                    <mxGeometry relative="1" as="geometry">
                        <mxPoint x="-82" y="-110" as="targetPoint"/>
                        <mxPoint x="-2" y="20" as="sourcePoint"/>
                        <Array as="points">
                            <mxPoint x="-82" y="20"/>
                        </Array>
                    </mxGeometry>
                </mxCell>
                <mxCell id="344" value="" style="rounded=0;whiteSpace=wrap;html=1;fillColor=#fff2cc;strokeColor=#d6b656;" parent="343" vertex="1">
                    <mxGeometry y="4" width="60" height="32" as="geometry"/>
                </mxCell>
                <mxCell id="345" value="js" style="text;html=1;align=center;verticalAlign=middle;resizable=0;points=[];autosize=1;strokeColor=none;fillColor=none;" parent="343" vertex="1">
                    <mxGeometry x="15" y="32" width="30" height="30" as="geometry"/>
                </mxCell>
                <mxCell id="346" value="script.css" style="text;html=1;align=center;verticalAlign=middle;resizable=0;points=[];autosize=1;strokeColor=none;fillColor=none;" parent="1" vertex="1">
                    <mxGeometry x="332.5" y="4472" width="70" height="30" as="geometry"/>
                </mxCell>
                <mxCell id="347" value="js" style="rounded=0;whiteSpace=wrap;html=1;" parent="1" vertex="1">
                    <mxGeometry x="347.5" y="4432" width="40" height="40" as="geometry"/>
                </mxCell>
                <mxCell id="348" style="edgeStyle=none;html=1;entryX=0;entryY=0.5;entryDx=0;entryDy=0;rounded=0;curved=0;endArrow=none;endFill=0;" parent="1" source="345" target="347" edge="1">
                    <mxGeometry relative="1" as="geometry">
                        <Array as="points">
                            <mxPoint x="270" y="4452"/>
                        </Array>
                    </mxGeometry>
                </mxCell>
                <mxCell id="350" value="" style="group" parent="1" vertex="1" connectable="0">
                    <mxGeometry x="240" y="4490" width="65" height="62" as="geometry"/>
                </mxCell>
                <mxCell id="351" style="edgeStyle=none;html=1;rounded=0;curved=0;endArrow=none;endFill=0;exitX=0;exitY=0.5;exitDx=0;exitDy=0;" parent="350" source="352" edge="1">
                    <mxGeometry relative="1" as="geometry">
                        <mxPoint x="-82" y="-110" as="targetPoint"/>
                        <mxPoint x="-2" y="20" as="sourcePoint"/>
                        <Array as="points">
                            <mxPoint x="-82" y="20"/>
                        </Array>
                    </mxGeometry>
                </mxCell>
                <mxCell id="352" value="" style="rounded=0;whiteSpace=wrap;html=1;fillColor=#fff2cc;strokeColor=#d6b656;" parent="350" vertex="1">
                    <mxGeometry y="4" width="60" height="32" as="geometry"/>
                </mxCell>
                <mxCell id="353" value="images" style="text;html=1;align=center;verticalAlign=middle;resizable=0;points=[];autosize=1;strokeColor=none;fillColor=none;" parent="350" vertex="1">
                    <mxGeometry y="32" width="60" height="30" as="geometry"/>
                </mxCell>
                <mxCell id="354" value="logo.png" style="text;html=1;align=center;verticalAlign=middle;resizable=0;points=[];autosize=1;strokeColor=none;fillColor=none;" parent="1" vertex="1">
                    <mxGeometry x="332.5" y="4592" width="70" height="30" as="geometry"/>
                </mxCell>
                <mxCell id="355" value="png" style="rounded=0;whiteSpace=wrap;html=1;" parent="1" vertex="1">
                    <mxGeometry x="347.5" y="4552" width="40" height="40" as="geometry"/>
                </mxCell>
                <mxCell id="356" style="edgeStyle=none;html=1;entryX=0;entryY=0.5;entryDx=0;entryDy=0;rounded=0;curved=0;endArrow=none;endFill=0;" parent="1" source="353" target="355" edge="1">
                    <mxGeometry relative="1" as="geometry">
                        <Array as="points">
                            <mxPoint x="270" y="4572"/>
                        </Array>
                    </mxGeometry>
                </mxCell>
                <mxCell id="357" value="" style="group" parent="1" vertex="1" connectable="0">
                    <mxGeometry x="130" y="4620" width="70" height="62" as="geometry"/>
                </mxCell>
                <mxCell id="358" style="edgeStyle=none;html=1;endArrow=none;endFill=0;" parent="357" source="359" edge="1">
                    <mxGeometry relative="1" as="geometry">
                        <mxPoint x="-60" y="16" as="targetPoint"/>
                    </mxGeometry>
                </mxCell>
                <mxCell id="359" value="" style="rounded=0;whiteSpace=wrap;html=1;fillColor=#fff2cc;strokeColor=#d6b656;" parent="357" vertex="1">
                    <mxGeometry width="60" height="32" as="geometry"/>
                </mxCell>
                <mxCell id="360" value="templates" style="text;html=1;align=center;verticalAlign=middle;resizable=0;points=[];autosize=1;strokeColor=none;fillColor=none;" parent="357" vertex="1">
                    <mxGeometry x="-10" y="32" width="80" height="30" as="geometry"/>
                </mxCell>
                <mxCell id="361" value="base.html" style="text;html=1;align=center;verticalAlign=middle;resizable=0;points=[];autosize=1;strokeColor=none;fillColor=none;" parent="1" vertex="1">
                    <mxGeometry x="232" y="4722" width="80" height="30" as="geometry"/>
                </mxCell>
                <mxCell id="362" value="html" style="rounded=0;whiteSpace=wrap;html=1;" parent="1" vertex="1">
                    <mxGeometry x="250" y="4682" width="40" height="40" as="geometry"/>
                </mxCell>
                <mxCell id="363" style="edgeStyle=none;html=1;entryX=0;entryY=0.5;entryDx=0;entryDy=0;rounded=0;curved=0;endArrow=none;endFill=0;" parent="1" target="362" edge="1">
                    <mxGeometry relative="1" as="geometry">
                        <Array as="points">
                            <mxPoint x="163.75" y="4702"/>
                        </Array>
                        <mxPoint x="163.75" y="4682" as="sourcePoint"/>
                    </mxGeometry>
                </mxCell>
                <mxCell id="364" value="" style="group" parent="1" vertex="1" connectable="0">
                    <mxGeometry x="130" y="4750" width="70" height="62" as="geometry"/>
                </mxCell>
                <mxCell id="365" style="edgeStyle=none;html=1;endArrow=none;endFill=0;" parent="364" edge="1">
                    <mxGeometry relative="1" as="geometry">
                        <mxPoint x="-60" y="20" as="targetPoint"/>
                        <mxPoint x="-5.684341886080802e-14" y="20" as="sourcePoint"/>
                    </mxGeometry>
                </mxCell>
                <mxCell id="366" value="" style="rounded=0;whiteSpace=wrap;html=1;fillColor=#fff2cc;strokeColor=#d6b656;" parent="364" vertex="1">
                    <mxGeometry y="4" width="60" height="32" as="geometry"/>
                </mxCell>
                <mxCell id="367" value="venv" style="text;html=1;align=center;verticalAlign=middle;resizable=0;points=[];autosize=1;strokeColor=none;fillColor=none;" parent="364" vertex="1">
                    <mxGeometry x="5" y="36" width="50" height="30" as="geometry"/>
                </mxCell>
                <mxCell id="368" value="" style="group" vertex="1" connectable="0" parent="1">
                    <mxGeometry x="121" y="1530" width="60" height="40" as="geometry"/>
                </mxCell>
                <mxCell id="369" value="" style="rounded=0;whiteSpace=wrap;html=1;fillColor=#fff2cc;strokeColor=#d6b656;" vertex="1" parent="368">
                    <mxGeometry y="8" width="60" height="32" as="geometry"/>
                </mxCell>
                <mxCell id="370" value="" style="shape=trapezoid;perimeter=trapezoidPerimeter;whiteSpace=wrap;html=1;fixedSize=1;size=10;fillColor=#fff2cc;strokeColor=#d6b656;" vertex="1" parent="368">
                    <mxGeometry width="23.076923076923077" height="8.88888888888889" as="geometry"/>
                </mxCell>
                <mxCell id="371" value="categories" style="text;html=1;align=center;verticalAlign=middle;resizable=0;points=[];autosize=1;strokeColor=none;fillColor=none;" vertex="1" parent="1">
                    <mxGeometry x="111" y="1561.8899999999999" width="80" height="30" as="geometry"/>
                </mxCell>
                <mxCell id="374" style="edgeStyle=none;html=1;endArrow=none;endFill=0;" edge="1" parent="1" source="375">
                    <mxGeometry relative="1" as="geometry">
                        <mxPoint x="151" y="1820" as="targetPoint"/>
                    </mxGeometry>
                </mxCell>
                <mxCell id="375" value="py" style="rounded=0;whiteSpace=wrap;html=1;" vertex="1" parent="1">
                    <mxGeometry x="242" y="1800" width="40" height="40" as="geometry"/>
                </mxCell>
                <mxCell id="376" value="test.py" style="text;html=1;align=center;verticalAlign=middle;resizable=0;points=[];autosize=1;strokeColor=none;fillColor=none;" vertex="1" parent="1">
                    <mxGeometry x="232" y="1840" width="60" height="30" as="geometry"/>
                </mxCell>
                <mxCell id="377" value="py" style="rounded=0;whiteSpace=wrap;html=1;" vertex="1" parent="1">
                    <mxGeometry x="242" y="1590" width="40" height="40" as="geometry"/>
                </mxCell>
                <mxCell id="378" style="edgeStyle=none;html=1;endArrow=none;endFill=0;" edge="1" parent="1" source="379">
                    <mxGeometry relative="1" as="geometry">
                        <mxPoint x="151" y="1680" as="targetPoint"/>
                    </mxGeometry>
                </mxCell>
                <mxCell id="379" value="py" style="rounded=0;whiteSpace=wrap;html=1;" vertex="1" parent="1">
                    <mxGeometry x="242" y="1660" width="40" height="40" as="geometry"/>
                </mxCell>
                <mxCell id="380" style="edgeStyle=none;html=1;endArrow=none;endFill=0;" edge="1" parent="1" source="381">
                    <mxGeometry relative="1" as="geometry">
                        <mxPoint x="151" y="1750" as="targetPoint"/>
                    </mxGeometry>
                </mxCell>
                <mxCell id="381" value="py" style="rounded=0;whiteSpace=wrap;html=1;" vertex="1" parent="1">
                    <mxGeometry x="242" y="1730" width="40" height="40" as="geometry"/>
                </mxCell>
                <mxCell id="382" value="__init__.py" style="text;html=1;align=center;verticalAlign=middle;resizable=0;points=[];autosize=1;strokeColor=none;fillColor=none;" vertex="1" parent="1">
                    <mxGeometry x="222" y="1630" width="80" height="30" as="geometry"/>
                </mxCell>
                <mxCell id="383" value="admin&lt;span style=&quot;background-color: transparent;&quot;&gt;.py&lt;/span&gt;" style="text;html=1;align=center;verticalAlign=middle;resizable=0;points=[];autosize=1;strokeColor=none;fillColor=none;" vertex="1" parent="1">
                    <mxGeometry x="227" y="1700" width="70" height="30" as="geometry"/>
                </mxCell>
                <mxCell id="384" value="models.py" style="text;html=1;align=center;verticalAlign=middle;resizable=0;points=[];autosize=1;strokeColor=none;fillColor=none;" vertex="1" parent="1">
                    <mxGeometry x="222" y="1770" width="80" height="30" as="geometry"/>
                </mxCell>
                <mxCell id="385" style="edgeStyle=none;html=1;entryX=0;entryY=0.5;entryDx=0;entryDy=0;endArrow=none;endFill=0;rounded=0;curved=0;" edge="1" parent="1" source="371" target="377">
                    <mxGeometry relative="1" as="geometry">
                        <mxPoint x="152" y="1590" as="sourcePoint"/>
                        <mxPoint x="201" y="1671" as="targetPoint"/>
                        <Array as="points">
                            <mxPoint x="151" y="1610"/>
                        </Array>
                    </mxGeometry>
                </mxCell>
                <mxCell id="387" value="" style="endArrow=none;html=1;" edge="1" parent="1">
                    <mxGeometry width="50" height="50" relative="1" as="geometry">
                        <mxPoint x="151" y="1820" as="sourcePoint"/>
                        <mxPoint x="151" y="1610" as="targetPoint"/>
                    </mxGeometry>
                </mxCell>
                <mxCell id="388" value="" style="endArrow=none;html=1;entryX=0;entryY=0.5;entryDx=0;entryDy=0;" edge="1" parent="1" target="369">
                    <mxGeometry width="50" height="50" relative="1" as="geometry">
                        <mxPoint x="70" y="1554" as="sourcePoint"/>
                        <mxPoint x="390" y="1480" as="targetPoint"/>
                    </mxGeometry>
                </mxCell>
            </root>
        </mxGraphModel>
    </diagram>
</mxfile>